<svg xmlns="http://www.w3.org/2000/svg" xmlns:xlink="http://www.w3.org/1999/xlink" width="500" zoomAndPan="magnify" viewBox="0 0 375 374.999991" height="500" preserveAspectRatio="xMidYMid meet" version="1.0"><defs><g/><clipPath id="a4dad3e94a"><path d="M 131.050781 110.160156 L 243.550781 110.160156 L 243.550781 222.660156 L 131.050781 222.660156 Z M 131.050781 110.160156 " clip-rule="nonzero"/></clipPath><clipPath id="86e6c21540"><path d="M 0.0507812 0.160156 L 112.550781 0.160156 L 112.550781 112.660156 L 0.0507812 112.660156 Z M 0.0507812 0.160156 " clip-rule="nonzero"/></clipPath><clipPath id="ccf5b3754c"><rect x="0" width="113" y="0" height="113"/></clipPath><clipPath id="cf5306b042"><path d="M 0.640625 4 L 298.71875 4 L 298.71875 60 L 0.640625 60 Z M 0.640625 4 " clip-rule="nonzero"/></clipPath><clipPath id="06325c81b0"><path d="M 0.640625 39 L 1 39 L 1 40 L 0.640625 40 Z M 0.640625 39 " clip-rule="nonzero"/></clipPath><clipPath id="712063780e"><rect x="0" width="299" y="0" height="56"/></clipPath><clipPath id="1968dccf08"><path d="M 88.488281 0.59375 L 108.050781 0.59375 L 108.050781 17.75 L 88.488281 17.75 Z M 88.488281 0.59375 " clip-rule="nonzero"/></clipPath><clipPath id="3bf81b396e"><path d="M 89.261719 3.386719 C 87.679688 5.996094 88.796875 8.535156 90.195312 9.882812 L 98.394531 17.75 L 106.421875 9.914062 C 107.722656 8.464844 108.222656 6.925781 107.945312 5.210938 C 107.5625 2.84375 105.609375 1.003906 103.199219 0.742188 C 101.71875 0.582031 100.292969 1.003906 99.175781 1.929688 C 98.875 2.179688 98.609375 2.457031 98.375 2.761719 C 98.097656 2.414062 97.769531 2.101562 97.402344 1.820312 C 96.121094 0.84375 94.488281 0.457031 92.921875 0.757812 C 91.4375 1.046875 90.101562 2.003906 89.261719 3.386719 Z M 89.261719 3.386719 " clip-rule="nonzero"/></clipPath><clipPath id="324ceebf12"><path d="M 0.488281 0.59375 L 20.050781 0.59375 L 20.050781 17.75 L 0.488281 17.75 Z M 0.488281 0.59375 " clip-rule="nonzero"/></clipPath><clipPath id="38723bcba6"><path d="M 1.261719 3.386719 C -0.320312 5.996094 0.796875 8.535156 2.195312 9.882812 L 10.394531 17.75 L 18.421875 9.914062 C 19.722656 8.464844 20.222656 6.925781 19.945312 5.210938 C 19.5625 2.84375 17.609375 1.003906 15.199219 0.742188 C 13.71875 0.582031 12.292969 1.003906 11.175781 1.929688 C 10.875 2.179688 10.609375 2.457031 10.375 2.761719 C 10.097656 2.414062 9.769531 2.101562 9.402344 1.820312 C 8.121094 0.84375 6.488281 0.457031 4.921875 0.757812 C 3.4375 1.046875 2.101562 2.003906 1.261719 3.386719 Z M 1.261719 3.386719 " clip-rule="nonzero"/></clipPath><clipPath id="45c6278d50"><rect x="0" width="21" y="0" height="18"/></clipPath><clipPath id="f280ad158e"><rect x="0" width="299" y="0" height="60"/></clipPath><clipPath id="7f956bb6af"><path d="M 251 87 L 254.113281 87 L 254.113281 180 L 251 180 Z M 251 87 " clip-rule="nonzero"/></clipPath><clipPath id="26ecbc8b57"><path d="M 143.015625 87 L 146 87 L 146 180 L 143.015625 180 Z M 143.015625 87 " clip-rule="nonzero"/></clipPath><clipPath id="39ffd20233"><path d="M 152 77.929688 L 245 77.929688 L 245 81 L 152 81 Z M 152 77.929688 " clip-rule="nonzero"/></clipPath><clipPath id="c4888599b4"><path d="M 152 186 L 245 186 L 245 189.023438 L 152 189.023438 Z M 152 186 " clip-rule="nonzero"/></clipPath><clipPath id="aa3d086ab4"><path d="M 244 77.929688 L 254.113281 77.929688 L 254.113281 88 L 244 88 Z M 244 77.929688 " clip-rule="nonzero"/></clipPath><clipPath id="4e2422385e"><path d="M 143.015625 77.929688 L 153 77.929688 L 153 88 L 143.015625 88 Z M 143.015625 77.929688 " clip-rule="nonzero"/></clipPath><clipPath id="86bc2fee13"><path d="M 244 179 L 254.113281 179 L 254.113281 189.023438 L 244 189.023438 Z M 244 179 " clip-rule="nonzero"/></clipPath><clipPath id="b814694035"><path d="M 143.015625 179 L 153 179 L 153 189.023438 L 143.015625 189.023438 Z M 143.015625 179 " clip-rule="nonzero"/></clipPath><clipPath id="53d0a26b1e"><path d="M 142.117188 77.027344 L 255.003906 77.027344 L 255.003906 189.914062 L 142.117188 189.914062 Z M 142.117188 77.027344 " clip-rule="nonzero"/></clipPath><clipPath id="86bef5b909"><path d="M 216.164062 172.300781 L 237.84375 172.300781 L 237.84375 196.671875 L 216.164062 196.671875 Z M 216.164062 172.300781 " clip-rule="nonzero"/></clipPath><clipPath id="777ceca528"><path d="M 0.164062 0.300781 L 21.84375 0.300781 L 21.84375 24.671875 L 0.164062 24.671875 Z M 0.164062 0.300781 " clip-rule="nonzero"/></clipPath><clipPath id="f44811eef0"><rect x="0" width="22" y="0" height="25"/></clipPath><clipPath id="9ec5ae6956"><path d="M 136.578125 93.664062 L 160.949219 93.664062 L 160.949219 115.347656 L 136.578125 115.347656 Z M 136.578125 93.664062 " clip-rule="nonzero"/></clipPath><clipPath id="2ef627784e"><path d="M 0.578125 0.664062 L 24.949219 0.664062 L 24.949219 22.347656 L 0.578125 22.347656 Z M 0.578125 0.664062 " clip-rule="nonzero"/></clipPath><clipPath id="aea0fcc612"><rect x="0" width="25" y="0" height="23"/></clipPath><clipPath id="6340d26489"><path d="M 229 108 L 231.984375 108 L 231.984375 202 L 229 202 Z M 229 108 " clip-rule="nonzero"/></clipPath><clipPath id="8d4eded19f"><path d="M 120.886719 108 L 124 108 L 124 202 L 120.886719 202 Z M 120.886719 108 " clip-rule="nonzero"/></clipPath><clipPath id="dbbacafa74"><path d="M 130 99.414062 L 223 99.414062 L 223 102 L 130 102 Z M 130 99.414062 " clip-rule="nonzero"/></clipPath><clipPath id="fac50ef64c"><path d="M 130 208 L 223 208 L 223 210.507812 L 130 210.507812 Z M 130 208 " clip-rule="nonzero"/></clipPath><clipPath id="9118d38d1e"><path d="M 222 99.414062 L 231.984375 99.414062 L 231.984375 109 L 222 109 Z M 222 99.414062 " clip-rule="nonzero"/></clipPath><clipPath id="996b00a68a"><path d="M 120.886719 99.414062 L 131 99.414062 L 131 109 L 120.886719 109 Z M 120.886719 99.414062 " clip-rule="nonzero"/></clipPath><clipPath id="dcbe49774e"><path d="M 222 201 L 231.984375 201 L 231.984375 210.507812 L 222 210.507812 Z M 222 201 " clip-rule="nonzero"/></clipPath><clipPath id="857b66c5b3"><path d="M 120.886719 201 L 131 201 L 131 210.507812 L 120.886719 210.507812 Z M 120.886719 201 " clip-rule="nonzero"/></clipPath><clipPath id="a9547431ac"><path d="M 119.988281 98.511719 L 232.875 98.511719 L 232.875 211.398438 L 119.988281 211.398438 Z M 119.988281 98.511719 " clip-rule="nonzero"/></clipPath><clipPath id="6854e97f76"><path d="M 195 115.347656 L 216 115.347656 L 216 143 L 195 143 Z M 195 115.347656 " clip-rule="nonzero"/></clipPath></defs><g clip-path="url(#a4dad3e94a)"><g transform="matrix(1, 0, 0, 1, 131, 110)"><g clip-path="url(#ccf5b3754c)"><g clip-path="url(#86e6c21540)"><path fill="#ffffff" d="M 0.0507812 0.160156 L 112.550781 0.160156 L 112.550781 112.660156 L 0.0507812 112.660156 Z M 0.0507812 0.160156 " fill-opacity="1" fill-rule="nonzero"/></g></g></g></g><g transform="matrix(1, 0, 0, 1, 38, 222)"><g clip-path="url(#f280ad158e)"><g clip-path="url(#cf5306b042)"><g transform="matrix(1, 0, 0, 1, 0, 4)"><g clip-path="url(#712063780e)"><g clip-path="url(#06325c81b0)"><g fill="#003e83" fill-opacity="1"><g transform="translate(0.939848, 39.570581)"><g/></g></g></g><g fill="#003e83" fill-opacity="1"><g transform="translate(15.959117, 39.570581)"><g><path d="M 7.71875 -37.796875 L 7.71875 -11.171875 C 7.71875 -9.191406 8.273438 -7.519531 9.390625 -6.15625 C 10.503906 -4.789062 12.234375 -4.109375 14.578125 -4.109375 C 16.921875 -4.109375 18.648438 -4.789062 19.765625 -6.15625 C 20.878906 -7.519531 21.4375 -9.191406 21.4375 -11.171875 L 21.4375 -37.796875 L 26.515625 -37.796875 L 26.515625 -11.171875 C 26.515625 -9.191406 27.070312 -7.519531 28.1875 -6.15625 C 29.300781 -4.789062 31.03125 -4.109375 33.375 -4.109375 C 35.707031 -4.109375 37.429688 -4.789062 38.546875 -6.15625 C 39.671875 -7.519531 40.234375 -9.191406 40.234375 -11.171875 L 40.234375 -37.796875 L 45.3125 -37.796875 L 45.3125 -11.125 C 45.3125 -9.46875 45.019531 -7.914062 44.4375 -6.46875 C 43.863281 -5.03125 43.070312 -3.789062 42.0625 -2.75 C 41.050781 -1.707031 39.863281 -0.878906 38.5 -0.265625 C 37.132812 0.335938 35.660156 0.640625 34.078125 0.640625 C 31.984375 0.640625 30.085938 0.300781 28.390625 -0.375 C 26.703125 -1.0625 25.226562 -2.359375 23.96875 -4.265625 C 22.675781 -2.285156 21.179688 -0.972656 19.484375 -0.328125 C 17.796875 0.316406 15.925781 0.640625 13.875 0.640625 C 12.289062 0.640625 10.820312 0.34375 9.46875 -0.25 C 8.125 -0.84375 6.9375 -1.664062 5.90625 -2.71875 C 4.882812 -3.78125 4.082031 -5.023438 3.5 -6.453125 C 2.925781 -7.878906 2.640625 -9.4375 2.640625 -11.125 L 2.640625 -37.796875 Z M 7.71875 -37.796875 "/></g></g></g><g fill="#003e83" fill-opacity="1"><g transform="translate(63.959666, 39.570581)"><g><path d="M 7.1875 -37.796875 L 7.1875 -23.65625 C 7.90625 -24.476562 8.847656 -25.148438 10.015625 -25.671875 C 11.179688 -26.191406 12.46875 -26.453125 13.875 -26.453125 C 17.550781 -26.453125 20.25 -25.5 21.96875 -23.59375 C 23.695312 -21.6875 24.5625 -18.914062 24.5625 -15.28125 L 24.5625 0 L 19.8125 0 L 19.8125 -15.28125 C 19.8125 -17.332031 19.304688 -18.953125 18.296875 -20.140625 C 17.296875 -21.328125 15.695312 -21.921875 13.5 -21.921875 C 11.695312 -21.921875 10.1875 -21.253906 8.96875 -19.921875 C 7.78125 -18.554688 7.1875 -16.992188 7.1875 -15.234375 L 7.1875 0 L 2.4375 0 L 2.4375 -37.796875 Z M 7.1875 -37.796875 "/></g></g></g><g fill="#003e83" fill-opacity="1"><g transform="translate(90.956597, 39.570581)"><g><path d="M 10.375 -31.703125 C 10.375 -30.984375 10.128906 -30.328125 9.640625 -29.734375 C 9.148438 -29.140625 8.4375 -28.84375 7.5 -28.84375 C 6.570312 -28.84375 5.863281 -29.140625 5.375 -29.734375 C 4.882812 -30.328125 4.640625 -30.984375 4.640625 -31.703125 C 4.640625 -32.421875 4.882812 -33.078125 5.375 -33.671875 C 5.863281 -34.265625 6.570312 -34.5625 7.5 -34.5625 C 8.4375 -34.5625 9.148438 -34.265625 9.640625 -33.671875 C 10.128906 -33.078125 10.375 -32.421875 10.375 -31.703125 Z M 9.875 -25.921875 L 9.875 0 L 5.125 0 L 5.125 -25.921875 Z M 9.875 -25.921875 "/></g></g></g><g fill="#003e83" fill-opacity="1"><g transform="translate(105.966891, 39.570581)"><g><path d="M 7.9375 -32.40625 L 7.9375 -25.921875 L 17.21875 -25.921875 L 17.21875 -21.390625 L 7.9375 -21.390625 L 7.9375 -7.609375 C 7.9375 -6.492188 8.222656 -5.703125 8.796875 -5.234375 C 9.378906 -4.765625 10.226562 -4.53125 11.34375 -4.53125 L 17.21875 -4.53125 L 17.21875 0 L 10.6875 0 C 8.3125 0 6.46875 -0.742188 5.15625 -2.234375 C 3.84375 -3.734375 3.1875 -5.722656 3.1875 -8.203125 L 3.1875 -32.40625 Z M 7.9375 -32.40625 "/></g></g><g transform="translate(123.946854, 39.570581)"><g><path d="M 10.09375 -8.53125 L 8.15625 -12.3125 L 20.953125 -19.4375 C 20.054688 -20.34375 19.203125 -20.984375 18.390625 -21.359375 C 17.578125 -21.734375 16.46875 -21.921875 15.0625 -21.921875 C 13.800781 -21.921875 12.65625 -21.703125 11.625 -21.265625 C 10.601562 -20.835938 9.710938 -20.226562 8.953125 -19.4375 C 8.203125 -18.644531 7.617188 -17.695312 7.203125 -16.59375 C 6.796875 -15.5 6.59375 -14.285156 6.59375 -12.953125 C 6.59375 -11.628906 6.796875 -10.414062 7.203125 -9.3125 C 7.617188 -8.21875 8.203125 -7.273438 8.953125 -6.484375 C 9.710938 -5.691406 10.601562 -5.078125 11.625 -4.640625 C 12.65625 -4.210938 13.800781 -4 15.0625 -4 C 17.550781 -4 19.46875 -4.632812 20.8125 -5.90625 C 22.164062 -7.1875 23.148438 -9.25 23.765625 -12.09375 L 28.5625 -11.5 C 28.382812 -9.695312 27.925781 -8.046875 27.1875 -6.546875 C 26.445312 -5.054688 25.472656 -3.789062 24.265625 -2.75 C 23.066406 -1.707031 21.679688 -0.894531 20.109375 -0.3125 C 18.546875 0.257812 16.863281 0.546875 15.0625 0.546875 C 13.226562 0.546875 11.488281 0.203125 9.84375 -0.484375 C 8.207031 -1.171875 6.785156 -2.109375 5.578125 -3.296875 C 4.378906 -4.484375 3.421875 -5.90625 2.703125 -7.5625 C 1.984375 -9.21875 1.625 -11.015625 1.625 -12.953125 C 1.625 -14.941406 1.988281 -16.757812 2.71875 -18.40625 C 3.457031 -20.0625 4.4375 -21.484375 5.65625 -22.671875 C 6.882812 -23.867188 8.304688 -24.796875 9.921875 -25.453125 C 11.546875 -26.117188 13.257812 -26.453125 15.0625 -26.453125 C 18.125 -26.453125 20.671875 -25.710938 22.703125 -24.234375 C 24.742188 -22.765625 26.375 -20.769531 27.59375 -18.25 Z M 10.09375 -8.53125 "/></g></g></g><g fill="#003e83" fill-opacity="1"><g transform="translate(153.967439, 39.570581)"><g><path d="M 26.890625 -27.703125 C 26.890625 -25.867188 26.566406 -24.238281 25.921875 -22.8125 C 25.273438 -21.394531 24.140625 -20.21875 22.515625 -19.28125 C 24.460938 -18.5625 25.785156 -17.488281 26.484375 -16.0625 C 27.191406 -14.644531 27.546875 -12.851562 27.546875 -10.6875 L 27.546875 0 L 22.46875 0 L 22.46875 -10.53125 C 22.46875 -12.332031 21.90625 -13.78125 20.78125 -14.875 C 19.664062 -15.976562 18.015625 -16.53125 15.828125 -16.53125 L 9.984375 -16.53125 L 9.984375 -21.28125 L 14.140625 -21.28125 C 16.410156 -21.28125 18.253906 -21.816406 19.671875 -22.890625 C 21.097656 -23.972656 21.8125 -25.523438 21.8125 -27.546875 C 21.8125 -28.410156 21.640625 -29.21875 21.296875 -29.96875 C 20.960938 -30.726562 20.5 -31.382812 19.90625 -31.9375 C 19.3125 -32.5 18.609375 -32.929688 17.796875 -33.234375 C 16.984375 -33.546875 16.128906 -33.703125 15.234375 -33.703125 C 14.109375 -33.703125 13.085938 -33.519531 12.171875 -33.15625 C 11.253906 -32.789062 10.472656 -32.289062 9.828125 -31.65625 C 9.179688 -31.03125 8.675781 -30.273438 8.3125 -29.390625 C 7.957031 -28.515625 7.78125 -27.570312 7.78125 -26.5625 L 7.78125 0 L 2.703125 0 L 2.703125 -25.21875 C 2.703125 -27.164062 2.988281 -28.957031 3.5625 -30.59375 C 4.132812 -32.226562 4.960938 -33.617188 6.046875 -34.765625 C 7.128906 -35.921875 8.441406 -36.820312 9.984375 -37.46875 C 11.535156 -38.125 13.285156 -38.453125 15.234375 -38.453125 C 16.890625 -38.453125 18.4375 -38.171875 19.875 -37.609375 C 21.3125 -37.054688 22.539062 -36.300781 23.5625 -35.34375 C 24.59375 -34.382812 25.40625 -33.25 26 -31.9375 C 26.59375 -30.625 26.890625 -29.210938 26.890625 -27.703125 Z M 26.890625 -27.703125 "/></g></g></g><g fill="#003e83" fill-opacity="1"><g transform="translate(183.988025, 39.570581)"><g><path d="M 28.453125 -12.953125 C 28.453125 -11.015625 28.101562 -9.21875 27.40625 -7.5625 C 26.707031 -5.90625 25.742188 -4.484375 24.515625 -3.296875 C 23.296875 -2.109375 21.875 -1.171875 20.25 -0.484375 C 18.625 0.203125 16.878906 0.546875 15.015625 0.546875 C 13.179688 0.546875 11.441406 0.210938 9.796875 -0.453125 C 8.160156 -1.117188 6.738281 -2.046875 5.53125 -3.234375 C 4.320312 -4.421875 3.359375 -5.84375 2.640625 -7.5 C 1.921875 -9.15625 1.5625 -10.972656 1.5625 -12.953125 C 1.5625 -14.941406 1.929688 -16.757812 2.671875 -18.40625 C 3.410156 -20.0625 4.390625 -21.484375 5.609375 -22.671875 C 6.835938 -23.867188 8.257812 -24.796875 9.875 -25.453125 C 11.5 -26.117188 13.210938 -26.453125 15.015625 -26.453125 C 16.847656 -26.453125 18.582031 -26.109375 20.21875 -25.421875 C 21.863281 -24.742188 23.296875 -23.800781 24.515625 -22.59375 C 25.742188 -21.394531 26.707031 -19.972656 27.40625 -18.328125 C 28.101562 -16.691406 28.453125 -14.898438 28.453125 -12.953125 Z M 15.015625 -4 C 16.304688 -4 17.472656 -4.222656 18.515625 -4.671875 C 19.566406 -5.117188 20.457031 -5.738281 21.1875 -6.53125 C 21.925781 -7.320312 22.492188 -8.265625 22.890625 -9.359375 C 23.285156 -10.460938 23.484375 -11.660156 23.484375 -12.953125 C 23.484375 -14.253906 23.285156 -15.453125 22.890625 -16.546875 C 22.492188 -17.648438 21.914062 -18.597656 21.15625 -19.390625 C 20.40625 -20.179688 19.507812 -20.800781 18.46875 -21.25 C 17.425781 -21.695312 16.253906 -21.921875 14.953125 -21.921875 C 13.734375 -21.921875 12.609375 -21.703125 11.578125 -21.265625 C 10.554688 -20.835938 9.664062 -20.226562 8.90625 -19.4375 C 8.15625 -18.644531 7.570312 -17.695312 7.15625 -16.59375 C 6.738281 -15.5 6.53125 -14.285156 6.53125 -12.953125 C 6.53125 -11.585938 6.742188 -10.351562 7.171875 -9.25 C 7.609375 -8.15625 8.203125 -7.210938 8.953125 -6.421875 C 9.710938 -5.628906 10.601562 -5.023438 11.625 -4.609375 C 12.65625 -4.203125 13.785156 -4 15.015625 -4 Z M 15.015625 -4 "/></g></g></g><g fill="#003e83" fill-opacity="1"><g transform="translate(214.008601, 39.570581)"><g><path d="M 28.453125 -12.953125 C 28.453125 -11.015625 28.101562 -9.21875 27.40625 -7.5625 C 26.707031 -5.90625 25.742188 -4.484375 24.515625 -3.296875 C 23.296875 -2.109375 21.875 -1.171875 20.25 -0.484375 C 18.625 0.203125 16.878906 0.546875 15.015625 0.546875 C 13.179688 0.546875 11.441406 0.210938 9.796875 -0.453125 C 8.160156 -1.117188 6.738281 -2.046875 5.53125 -3.234375 C 4.320312 -4.421875 3.359375 -5.84375 2.640625 -7.5 C 1.921875 -9.15625 1.5625 -10.972656 1.5625 -12.953125 C 1.5625 -14.941406 1.929688 -16.757812 2.671875 -18.40625 C 3.410156 -20.0625 4.390625 -21.484375 5.609375 -22.671875 C 6.835938 -23.867188 8.257812 -24.796875 9.875 -25.453125 C 11.5 -26.117188 13.210938 -26.453125 15.015625 -26.453125 C 16.847656 -26.453125 18.582031 -26.109375 20.21875 -25.421875 C 21.863281 -24.742188 23.296875 -23.800781 24.515625 -22.59375 C 25.742188 -21.394531 26.707031 -19.972656 27.40625 -18.328125 C 28.101562 -16.691406 28.453125 -14.898438 28.453125 -12.953125 Z M 15.015625 -4 C 16.304688 -4 17.472656 -4.222656 18.515625 -4.671875 C 19.566406 -5.117188 20.457031 -5.738281 21.1875 -6.53125 C 21.925781 -7.320312 22.492188 -8.265625 22.890625 -9.359375 C 23.285156 -10.460938 23.484375 -11.660156 23.484375 -12.953125 C 23.484375 -14.253906 23.285156 -15.453125 22.890625 -16.546875 C 22.492188 -17.648438 21.914062 -18.597656 21.15625 -19.390625 C 20.40625 -20.179688 19.507812 -20.800781 18.46875 -21.25 C 17.425781 -21.695312 16.253906 -21.921875 14.953125 -21.921875 C 13.734375 -21.921875 12.609375 -21.703125 11.578125 -21.265625 C 10.554688 -20.835938 9.664062 -20.226562 8.90625 -19.4375 C 8.15625 -18.644531 7.570312 -17.695312 7.15625 -16.59375 C 6.738281 -15.5 6.53125 -14.285156 6.53125 -12.953125 C 6.53125 -11.585938 6.742188 -10.351562 7.171875 -9.25 C 7.609375 -8.15625 8.203125 -7.210938 8.953125 -6.421875 C 9.710938 -5.628906 10.601562 -5.023438 11.625 -4.609375 C 12.65625 -4.203125 13.785156 -4 15.015625 -4 Z M 15.015625 -4 "/></g></g></g><g fill="#003e83" fill-opacity="1"><g transform="translate(244.029187, 39.570581)"><g><path d="M 19.5 -22.78125 C 20.363281 -24.039062 21.457031 -24.96875 22.78125 -25.5625 C 24.113281 -26.15625 25.535156 -26.453125 27.046875 -26.453125 C 28.421875 -26.453125 29.675781 -26.207031 30.8125 -25.71875 C 31.945312 -25.238281 32.925781 -24.59375 33.75 -23.78125 C 34.570312 -22.976562 35.207031 -22.050781 35.65625 -21 C 36.113281 -19.957031 36.34375 -18.863281 36.34375 -17.71875 L 36.34375 0 L 31.59375 0 L 31.59375 -16.625 C 31.59375 -18.144531 31.1875 -19.40625 30.375 -20.40625 C 29.5625 -21.414062 28.421875 -21.921875 26.953125 -21.921875 C 25.328125 -21.921875 24.070312 -21.4375 23.1875 -20.46875 C 22.3125 -19.5 21.875 -17.988281 21.875 -15.9375 L 21.875 0 L 17.125 0 L 17.125 -15.9375 C 17.125 -17.988281 16.679688 -19.5 15.796875 -20.46875 C 14.910156 -21.4375 13.660156 -21.921875 12.046875 -21.921875 C 10.597656 -21.921875 9.457031 -21.425781 8.625 -20.4375 C 7.800781 -19.445312 7.390625 -18.195312 7.390625 -16.6875 L 7.390625 0 L 2.640625 0 L 2.640625 -17.765625 C 2.640625 -18.921875 2.875 -20.03125 3.34375 -21.09375 C 3.8125 -22.15625 4.457031 -23.082031 5.28125 -23.875 C 6.113281 -24.664062 7.097656 -25.289062 8.234375 -25.75 C 9.367188 -26.21875 10.601562 -26.453125 11.9375 -26.453125 C 13.445312 -26.453125 14.867188 -26.15625 16.203125 -25.5625 C 17.535156 -24.96875 18.632812 -24.039062 19.5 -22.78125 Z M 19.5 -22.78125 "/></g></g></g><g fill="#003e83" fill-opacity="1"><g transform="translate(283.020153, 39.570581)"><g/></g></g></g></g></g><g clip-path="url(#1968dccf08)"><g clip-path="url(#3bf81b396e)"><g transform="matrix(1, 0, 0, 1, 88, 0)"><g clip-path="url(#45c6278d50)"><g clip-path="url(#324ceebf12)"><g clip-path="url(#38723bcba6)"><path fill="#ce1126" d="M 0.488281 0.660156 L 20.050781 0.660156 L 20.050781 17.75 L 0.488281 17.75 Z M 0.488281 0.660156 " fill-opacity="1" fill-rule="nonzero"/></g></g></g></g></g></g></g></g><g clip-path="url(#7f956bb6af)"><path fill="#0057b7" d="M 251.628906 87.371094 L 255.003906 87.371094 L 255.003906 179.570312 L 251.628906 179.570312 Z M 251.628906 87.371094 " fill-opacity="1" fill-rule="nonzero"/></g><g clip-path="url(#26ecbc8b57)"><path fill="#0057b7" d="M 142.117188 87.371094 L 145.488281 87.371094 L 145.488281 179.570312 L 142.117188 179.570312 Z M 142.117188 87.371094 " fill-opacity="1" fill-rule="nonzero"/></g><g clip-path="url(#39ffd20233)"><path fill="#0057b7" d="M 152.460938 77.027344 L 244.65625 77.027344 L 244.65625 80.402344 L 152.460938 80.402344 Z M 152.460938 77.027344 " fill-opacity="1" fill-rule="nonzero"/></g><g clip-path="url(#c4888599b4)"><path fill="#0057b7" d="M 152.460938 186.542969 L 244.65625 186.542969 L 244.65625 189.914062 L 152.460938 189.914062 Z M 152.460938 186.542969 " fill-opacity="1" fill-rule="nonzero"/></g><g clip-path="url(#aa3d086ab4)"><path fill="#0057b7" d="M 251.628906 80.402344 L 251.628906 87.371094 L 255.003906 87.371094 L 255.003906 77.027344 L 244.65625 77.027344 L 244.65625 80.402344 Z M 251.628906 80.402344 " fill-opacity="1" fill-rule="nonzero"/></g><g clip-path="url(#4e2422385e)"><path fill="#0057b7" d="M 145.488281 80.402344 L 152.460938 80.402344 L 152.460938 77.027344 L 142.117188 77.027344 L 142.117188 87.371094 L 145.488281 87.371094 Z M 145.488281 80.402344 " fill-opacity="1" fill-rule="nonzero"/></g><g clip-path="url(#86bc2fee13)"><path fill="#0057b7" d="M 251.628906 186.542969 L 244.65625 186.542969 L 244.65625 189.914062 L 255.003906 189.914062 L 255.003906 179.570312 L 251.628906 179.570312 Z M 251.628906 186.542969 " fill-opacity="1" fill-rule="nonzero"/></g><g clip-path="url(#b814694035)"><path fill="#0057b7" d="M 145.488281 186.542969 L 145.488281 179.570312 L 142.117188 179.570312 L 142.117188 189.914062 L 152.460938 189.914062 L 152.460938 186.542969 Z M 145.488281 186.542969 " fill-opacity="1" fill-rule="nonzero"/></g><g clip-path="url(#53d0a26b1e)"><path stroke-linecap="butt" transform="matrix(0.75, 0, 0, 0.75, 142.11565, 77.028137)" fill="none" stroke-linejoin="miter" d="M 0.00205058 -0.00105706 L 0.00205058 150.514578 L 150.517685 150.514578 L 150.517685 -0.00105706 L 0.00205058 -0.00105706 " stroke="#0057b7" stroke-width="32" stroke-opacity="1" stroke-miterlimit="4"/></g><g clip-path="url(#86bef5b909)"><g transform="matrix(1, 0, 0, 1, 216, 172)"><g clip-path="url(#f44811eef0)"><g clip-path="url(#777ceca528)"><path fill="#ffffff" d="M 21.84375 0.300781 L 21.84375 24.691406 L 0.164062 24.691406 L 0.164062 0.300781 Z M 21.84375 0.300781 " fill-opacity="1" fill-rule="nonzero"/></g></g></g></g><g clip-path="url(#9ec5ae6956)"><g transform="matrix(1, 0, 0, 1, 136, 93)"><g clip-path="url(#aea0fcc612)"><g clip-path="url(#2ef627784e)"><path fill="#ffffff" d="M 0.578125 0.664062 L 24.96875 0.664062 L 24.96875 22.347656 L 0.578125 22.347656 Z M 0.578125 0.664062 " fill-opacity="1" fill-rule="nonzero"/></g></g></g></g><g clip-path="url(#6340d26489)"><path fill="#0057b7" d="M 229.5 108.855469 L 232.875 108.855469 L 232.875 201.054688 L 229.5 201.054688 Z M 229.5 108.855469 " fill-opacity="1" fill-rule="nonzero"/></g><g clip-path="url(#8d4eded19f)"><path fill="#0057b7" d="M 119.988281 108.855469 L 123.359375 108.855469 L 123.359375 201.054688 L 119.988281 201.054688 Z M 119.988281 108.855469 " fill-opacity="1" fill-rule="nonzero"/></g><g clip-path="url(#dbbacafa74)"><path fill="#0057b7" d="M 130.332031 98.511719 L 222.53125 98.511719 L 222.53125 101.886719 L 130.332031 101.886719 Z M 130.332031 98.511719 " fill-opacity="1" fill-rule="nonzero"/></g><g clip-path="url(#fac50ef64c)"><path fill="#0057b7" d="M 130.332031 208.027344 L 222.53125 208.027344 L 222.53125 211.398438 L 130.332031 211.398438 Z M 130.332031 208.027344 " fill-opacity="1" fill-rule="nonzero"/></g><g clip-path="url(#9118d38d1e)"><path fill="#0057b7" d="M 229.5 101.886719 L 229.5 108.855469 L 232.875 108.855469 L 232.875 98.511719 L 222.53125 98.511719 L 222.53125 101.886719 Z M 229.5 101.886719 " fill-opacity="1" fill-rule="nonzero"/></g><g clip-path="url(#996b00a68a)"><path fill="#0057b7" d="M 123.359375 101.886719 L 130.332031 101.886719 L 130.332031 98.511719 L 119.988281 98.511719 L 119.988281 108.855469 L 123.359375 108.855469 Z M 123.359375 101.886719 " fill-opacity="1" fill-rule="nonzero"/></g><g clip-path="url(#dcbe49774e)"><path fill="#0057b7" d="M 229.5 208.027344 L 222.53125 208.027344 L 222.53125 211.398438 L 232.875 211.398438 L 232.875 201.054688 L 229.5 201.054688 Z M 229.5 208.027344 " fill-opacity="1" fill-rule="nonzero"/></g><g clip-path="url(#857b66c5b3)"><path fill="#0057b7" d="M 123.359375 208.027344 L 123.359375 201.054688 L 119.988281 201.054688 L 119.988281 211.398438 L 130.332031 211.398438 L 130.332031 208.027344 Z M 123.359375 208.027344 " fill-opacity="1" fill-rule="nonzero"/></g><g clip-path="url(#a9547431ac)"><path stroke-linecap="butt" transform="matrix(0.75, 0, 0, 0.75, 119.987457, 98.512405)" fill="none" stroke-linejoin="miter" d="M 0.00109951 -0.000914641 L 0.00109951 150.51472 L 150.516734 150.51472 L 150.516734 -0.000914641 L 0.00109951 -0.000914641 " stroke="#ffd700" stroke-width="32" stroke-opacity="1" stroke-miterlimit="4"/></g><path fill="#0093dd" d="M 207.277344 128.558594 C 211.253906 130.382812 214.160156 133.136719 215.363281 136.769531 C 216.953125 141.546875 215.140625 147.007812 210.8125 151.839844 C 206.390625 156.777344 199.394531 161.070312 190.855469 163.46875 C 182.316406 165.867188 174 165.847656 167.652344 163.851562 C 161.394531 161.886719 157.101562 157.976562 156.246094 152.867188 C 155.75 149.898438 156.414062 146.867188 157.988281 143.957031 C 157.5625 145.265625 157.34375 146.605469 157.351562 147.964844 C 157.390625 153.105469 161.175781 157.332031 167.292969 159.394531 C 173.503906 161.488281 181.984375 161.359375 190.253906 158.761719 C 198.523438 156.160156 204.683594 151.902344 208.4375 147.183594 C 211.9375 142.78125 213.121094 137.925781 211.570312 133.90625 C 210.734375 131.734375 209.246094 129.957031 207.277344 128.558594 " fill-opacity="1" fill-rule="evenodd"/><path fill="#0093dd" d="M 218.347656 142.503906 C 219.496094 146.988281 217.582031 152.371094 213.3125 157.246094 C 208.738281 162.472656 201.582031 167.113281 193.195312 169.726562 C 184.808594 172.335938 177.113281 172.347656 171.539062 170.351562 C 168.90625 169.40625 166.773438 167.996094 165.269531 166.226562 C 166.492188 167.144531 167.949219 167.902344 169.605469 168.476562 C 175.308594 170.449219 183.261719 170.3125 191.921875 167.523438 C 200.582031 164.730469 207.945312 159.925781 212.695312 154.570312 C 216.214844 150.601562 218.21875 146.339844 218.347656 142.503906 " fill-opacity="1" fill-rule="evenodd"/><path fill="#12418a" d="M 179.800781 144.875 C 179.105469 143.167969 177.75 142.28125 176.257812 142.082031 C 177.5625 133.804688 178.667969 125.523438 179.234375 117.15625 L 179.277344 116.523438 L 178.019531 116.4375 L 177.976562 117.070312 C 177.40625 125.464844 176.292969 133.773438 174.980469 142.078125 C 173.445312 142.253906 171.925781 143.09375 170.957031 144.457031 Z M 165.09375 156.382812 C 166.183594 155.332031 167.222656 154.25 168.203125 153.125 C 167.660156 154.425781 166.996094 155.699219 166.246094 156.949219 C 166.789062 157.191406 167.34375 157.40625 167.898438 157.59375 C 168.242188 157.710938 168.589844 157.820312 168.941406 157.917969 L 171.304688 152.082031 L 170.324219 158.265625 C 171.464844 158.519531 172.632812 158.699219 173.824219 158.808594 L 175.902344 151.3125 L 175.453125 158.898438 C 177.746094 158.867188 180.105469 158.496094 182.539062 157.765625 C 182.296875 153.84375 181.398438 149.742188 180.027344 145.519531 L 170.578125 145.070312 C 168.648438 148.605469 165.554688 151.503906 162.007812 154.152344 C 162.902344 155.027344 163.960938 155.773438 165.09375 156.382812 Z M 165.09375 156.382812 " fill-opacity="1" fill-rule="evenodd"/><path fill="#12418a" d="M 182.289062 132.875 C 190.527344 132.875 198.761719 132.875 207 132.875 C 207.683594 132.875 208.242188 133.4375 208.242188 134.125 C 208.242188 134.6875 207.867188 135.164062 207.355469 135.320312 L 206.441406 146.625 C 202.179688 151.632812 195.855469 155.011719 189.6875 156.949219 C 189.28125 157.078125 188.871094 157.199219 188.453125 157.316406 L 187.242188 157.304688 C 185.496094 157.292969 183.632812 156.300781 183.378906 153.175781 L 181.9375 135.320312 C 181.421875 135.167969 181.046875 134.6875 181.046875 134.125 C 181.046875 133.4375 181.605469 132.875 182.289062 132.875 " fill-opacity="1" fill-rule="evenodd"/><g clip-path="url(#6854e97f76)"><path fill="#12418a" d="M 195.09375 117.472656 L 195.132812 120.164062 L 199.984375 122.878906 L 202.570312 126.4375 L 200.167969 135.4375 L 199.761719 135.328125 L 197.957031 142.078125 L 200.101562 142.65625 L 201.90625 135.902344 L 201.5 135.792969 L 203.902344 126.796875 L 207.917969 125.011719 L 213.46875 125.09375 L 214.847656 122.78125 Z M 195.0625 115.347656 L 195.089844 117.085938 L 215.042969 122.449219 L 215.933594 120.957031 C 201.839844 117.167969 209.15625 119.136719 195.0625 115.347656 Z M 195.0625 115.347656 " fill-opacity="1" fill-rule="evenodd"/></g><path fill="#12418a" d="M 186.824219 126.847656 L 186.976562 126.847656 C 186.464844 125.632812 185.230469 123.816406 183.777344 123.816406 L 182.324219 123.816406 L 182.324219 121.1875 L 193.042969 121.1875 C 195.273438 121.1875 196.859375 122.9375 196.515625 125.207031 C 193.804688 125.046875 193.480469 125.546875 192.464844 126.847656 L 192.617188 126.847656 C 192.941406 126.847656 193.203125 127.109375 193.203125 127.433594 L 193.203125 130.683594 C 193.203125 131.003906 192.941406 131.269531 192.617188 131.269531 L 192.464844 131.269531 L 192.464844 134.824219 L 186.976562 134.824219 L 186.976562 131.269531 L 186.824219 131.269531 C 186.5 131.269531 186.238281 131.003906 186.238281 130.683594 L 186.238281 127.433594 C 186.238281 127.109375 186.5 126.847656 186.824219 126.847656 M 183.59375 124.449219 C 183.023438 126.777344 182.039062 128.628906 180.863281 130.261719 L 182.371094 130.074219 C 183.589844 128.835938 184.71875 127.457031 185.769531 125.953125 C 185.25 125.183594 184.527344 124.449219 183.777344 124.449219 Z M 181.273438 121.1875 L 181.949219 121.1875 L 181.949219 123.816406 L 181.273438 123.816406 Z M 181.273438 121.1875 " fill-opacity="1" fill-rule="evenodd"/><path fill="#0093dd" d="M 164.84375 140.921875 C 164.960938 144.125 164.539062 143.398438 167.246094 145.101562 C 164.054688 145.214844 164.78125 144.796875 163.085938 147.511719 C 162.96875 144.308594 163.386719 145.039062 160.679688 143.335938 C 163.875 143.21875 163.148438 143.640625 164.84375 140.921875 " fill-opacity="1" fill-rule="evenodd"/><path fill="#0093dd" d="M 172.078125 136.230469 C 172.742188 138.398438 172.324219 137.976562 174.484375 138.640625 C 172.324219 139.308594 172.742188 138.886719 172.078125 141.054688 C 171.414062 138.886719 171.835938 139.308594 169.675781 138.640625 C 171.835938 137.976562 171.417969 138.398438 172.078125 136.230469 " fill-opacity="1" fill-rule="evenodd"/><path fill="#0093dd" d="M 166.253906 132.953125 C 166.859375 134.925781 166.476562 134.542969 168.441406 135.148438 C 166.476562 135.753906 166.859375 135.371094 166.253906 137.34375 C 165.648438 135.371094 166.03125 135.753906 164.066406 135.148438 C 166.03125 134.542969 165.648438 134.925781 166.253906 132.953125 " fill-opacity="1" fill-rule="evenodd"/><g fill="#0057b7" fill-opacity="1"><g transform="translate(100.381471, 287.612912)"><g><path d="M 13.984375 -14 L 13.984375 0 L 12.515625 0 L 12.515625 -6.453125 L 3.765625 -6.453125 L 3.765625 0 L 2.28125 0 L 2.28125 -14 L 3.765625 -14 L 3.765625 -7.765625 L 12.515625 -7.765625 L 12.515625 -14 Z M 13.984375 -14 "/></g></g></g><g fill="#0057b7" fill-opacity="1"><g transform="translate(118.735058, 287.612912)"><g><path d="M 6.28125 0.09375 C 5.269531 0.09375 4.351562 -0.132812 3.53125 -0.59375 C 2.71875 -1.050781 2.078125 -1.6875 1.609375 -2.5 C 1.148438 -3.3125 0.921875 -4.234375 0.921875 -5.265625 C 0.921875 -6.285156 1.148438 -7.203125 1.609375 -8.015625 C 2.078125 -8.828125 2.71875 -9.457031 3.53125 -9.90625 C 4.351562 -10.363281 5.269531 -10.59375 6.28125 -10.59375 C 7.289062 -10.59375 8.203125 -10.363281 9.015625 -9.90625 C 9.828125 -9.457031 10.460938 -8.828125 10.921875 -8.015625 C 11.390625 -7.203125 11.625 -6.285156 11.625 -5.265625 C 11.625 -4.234375 11.390625 -3.3125 10.921875 -2.5 C 10.460938 -1.6875 9.828125 -1.050781 9.015625 -0.59375 C 8.203125 -0.132812 7.289062 0.09375 6.28125 0.09375 Z M 6.28125 -1.15625 C 7.03125 -1.15625 7.703125 -1.328125 8.296875 -1.671875 C 8.890625 -2.015625 9.351562 -2.5 9.6875 -3.125 C 10.019531 -3.75 10.1875 -4.460938 10.1875 -5.265625 C 10.1875 -6.054688 10.019531 -6.765625 9.6875 -7.390625 C 9.351562 -8.023438 8.890625 -8.507812 8.296875 -8.84375 C 7.703125 -9.1875 7.03125 -9.359375 6.28125 -9.359375 C 5.53125 -9.359375 4.859375 -9.1875 4.265625 -8.84375 C 3.671875 -8.507812 3.203125 -8.023438 2.859375 -7.390625 C 2.523438 -6.765625 2.359375 -6.054688 2.359375 -5.265625 C 2.359375 -4.460938 2.523438 -3.75 2.859375 -3.125 C 3.203125 -2.5 3.671875 -2.015625 4.265625 -1.671875 C 4.859375 -1.328125 5.53125 -1.15625 6.28125 -1.15625 Z M 6.28125 -1.15625 "/></g></g></g><g fill="#0057b7" fill-opacity="1"><g transform="translate(133.370116, 287.612912)"><g><path d="M 15.09375 -10.59375 C 16.414062 -10.59375 17.453125 -10.210938 18.203125 -9.453125 C 18.960938 -8.691406 19.34375 -7.570312 19.34375 -6.09375 L 19.34375 0 L 17.921875 0 L 17.921875 -5.953125 C 17.921875 -7.046875 17.65625 -7.878906 17.125 -8.453125 C 16.601562 -9.023438 15.863281 -9.3125 14.90625 -9.3125 C 13.8125 -9.3125 12.945312 -8.972656 12.3125 -8.296875 C 11.6875 -7.628906 11.375 -6.703125 11.375 -5.515625 L 11.375 0 L 9.953125 0 L 9.953125 -5.953125 C 9.953125 -7.046875 9.6875 -7.878906 9.15625 -8.453125 C 8.632812 -9.023438 7.890625 -9.3125 6.921875 -9.3125 C 5.835938 -9.3125 4.976562 -8.972656 4.34375 -8.296875 C 3.71875 -7.628906 3.40625 -6.703125 3.40625 -5.515625 L 3.40625 0 L 1.984375 0 L 1.984375 -10.515625 L 3.34375 -10.515625 L 3.34375 -8.59375 C 3.71875 -9.238281 4.238281 -9.734375 4.90625 -10.078125 C 5.570312 -10.421875 6.335938 -10.59375 7.203125 -10.59375 C 8.078125 -10.59375 8.835938 -10.40625 9.484375 -10.03125 C 10.128906 -9.664062 10.613281 -9.113281 10.9375 -8.375 C 11.320312 -9.070312 11.878906 -9.613281 12.609375 -10 C 13.335938 -10.394531 14.164062 -10.59375 15.09375 -10.59375 Z M 15.09375 -10.59375 "/></g></g></g><g fill="#0057b7" fill-opacity="1"><g transform="translate(156.681752, 287.612912)"><g><path d="M 11.140625 -4.8125 L 2.34375 -4.8125 C 2.414062 -3.726562 2.832031 -2.847656 3.59375 -2.171875 C 4.351562 -1.492188 5.316406 -1.15625 6.484375 -1.15625 C 7.128906 -1.15625 7.722656 -1.269531 8.265625 -1.5 C 8.816406 -1.738281 9.296875 -2.085938 9.703125 -2.546875 L 10.5 -1.625 C 10.03125 -1.0625 9.445312 -0.632812 8.75 -0.34375 C 8.050781 -0.0507812 7.28125 0.09375 6.4375 0.09375 C 5.351562 0.09375 4.394531 -0.132812 3.5625 -0.59375 C 2.726562 -1.050781 2.078125 -1.6875 1.609375 -2.5 C 1.148438 -3.3125 0.921875 -4.234375 0.921875 -5.265625 C 0.921875 -6.285156 1.144531 -7.203125 1.59375 -8.015625 C 2.039062 -8.828125 2.648438 -9.457031 3.421875 -9.90625 C 4.203125 -10.363281 5.082031 -10.59375 6.0625 -10.59375 C 7.03125 -10.59375 7.898438 -10.363281 8.671875 -9.90625 C 9.453125 -9.457031 10.0625 -8.828125 10.5 -8.015625 C 10.9375 -7.210938 11.15625 -6.296875 11.15625 -5.265625 Z M 6.0625 -9.375 C 5.050781 -9.375 4.203125 -9.050781 3.515625 -8.40625 C 2.828125 -7.757812 2.4375 -6.914062 2.34375 -5.875 L 9.796875 -5.875 C 9.703125 -6.914062 9.3125 -7.757812 8.625 -8.40625 C 7.9375 -9.050781 7.082031 -9.375 6.0625 -9.375 Z M 6.0625 -9.375 "/></g></g></g><g fill="#0057b7" fill-opacity="1"><g transform="translate(170.856987, 287.612912)"><g/></g></g><g fill="#0057b7" fill-opacity="1"><g transform="translate(178.194926, 287.612912)"><g><path d="M 6.140625 0.125 C 5.097656 0.125 4.097656 -0.0390625 3.140625 -0.375 C 2.191406 -0.707031 1.457031 -1.148438 0.9375 -1.703125 L 1.515625 -2.84375 C 2.023438 -2.332031 2.695312 -1.921875 3.53125 -1.609375 C 4.375 -1.296875 5.242188 -1.140625 6.140625 -1.140625 C 7.390625 -1.140625 8.328125 -1.367188 8.953125 -1.828125 C 9.585938 -2.285156 9.90625 -2.882812 9.90625 -3.625 C 9.90625 -4.175781 9.734375 -4.617188 9.390625 -4.953125 C 9.046875 -5.285156 8.628906 -5.539062 8.140625 -5.71875 C 7.648438 -5.90625 6.960938 -6.101562 6.078125 -6.3125 C 5.023438 -6.582031 4.1875 -6.835938 3.5625 -7.078125 C 2.9375 -7.328125 2.398438 -7.707031 1.953125 -8.21875 C 1.503906 -8.726562 1.28125 -9.414062 1.28125 -10.28125 C 1.28125 -10.988281 1.46875 -11.628906 1.84375 -12.203125 C 2.21875 -12.785156 2.789062 -13.25 3.5625 -13.59375 C 4.332031 -13.945312 5.289062 -14.125 6.4375 -14.125 C 7.238281 -14.125 8.019531 -14.007812 8.78125 -13.78125 C 9.550781 -13.5625 10.21875 -13.257812 10.78125 -12.875 L 10.28125 -11.703125 C 9.695312 -12.085938 9.070312 -12.375 8.40625 -12.5625 C 7.738281 -12.757812 7.082031 -12.859375 6.4375 -12.859375 C 5.207031 -12.859375 4.28125 -12.617188 3.65625 -12.140625 C 3.039062 -11.671875 2.734375 -11.0625 2.734375 -10.3125 C 2.734375 -9.757812 2.90625 -9.3125 3.25 -8.96875 C 3.59375 -8.625 4.019531 -8.363281 4.53125 -8.1875 C 5.039062 -8.007812 5.726562 -7.8125 6.59375 -7.59375 C 7.625 -7.34375 8.457031 -7.09375 9.09375 -6.84375 C 9.726562 -6.601562 10.265625 -6.234375 10.703125 -5.734375 C 11.140625 -5.234375 11.359375 -4.554688 11.359375 -3.703125 C 11.359375 -2.992188 11.164062 -2.347656 10.78125 -1.765625 C 10.40625 -1.191406 9.820312 -0.734375 9.03125 -0.390625 C 8.25 -0.046875 7.285156 0.125 6.140625 0.125 Z M 6.140625 0.125 "/></g></g></g><g fill="#0057b7" fill-opacity="1"><g transform="translate(192.590082, 287.612912)"><g><path d="M 11.140625 -4.8125 L 2.34375 -4.8125 C 2.414062 -3.726562 2.832031 -2.847656 3.59375 -2.171875 C 4.351562 -1.492188 5.316406 -1.15625 6.484375 -1.15625 C 7.128906 -1.15625 7.722656 -1.269531 8.265625 -1.5 C 8.816406 -1.738281 9.296875 -2.085938 9.703125 -2.546875 L 10.5 -1.625 C 10.03125 -1.0625 9.445312 -0.632812 8.75 -0.34375 C 8.050781 -0.0507812 7.28125 0.09375 6.4375 0.09375 C 5.351562 0.09375 4.394531 -0.132812 3.5625 -0.59375 C 2.726562 -1.050781 2.078125 -1.6875 1.609375 -2.5 C 1.148438 -3.3125 0.921875 -4.234375 0.921875 -5.265625 C 0.921875 -6.285156 1.144531 -7.203125 1.59375 -8.015625 C 2.039062 -8.828125 2.648438 -9.457031 3.421875 -9.90625 C 4.203125 -10.363281 5.082031 -10.59375 6.0625 -10.59375 C 7.03125 -10.59375 7.898438 -10.363281 8.671875 -9.90625 C 9.453125 -9.457031 10.0625 -8.828125 10.5 -8.015625 C 10.9375 -7.210938 11.15625 -6.296875 11.15625 -5.265625 Z M 6.0625 -9.375 C 5.050781 -9.375 4.203125 -9.050781 3.515625 -8.40625 C 2.828125 -7.757812 2.4375 -6.914062 2.34375 -5.875 L 9.796875 -5.875 C 9.703125 -6.914062 9.3125 -7.757812 8.625 -8.40625 C 7.9375 -9.050781 7.082031 -9.375 6.0625 -9.375 Z M 6.0625 -9.375 "/></g></g></g><g fill="#0057b7" fill-opacity="1"><g transform="translate(206.765317, 287.612912)"><g><path d="M 3.34375 -8.453125 C 3.675781 -9.160156 4.171875 -9.691406 4.828125 -10.046875 C 5.484375 -10.410156 6.300781 -10.59375 7.28125 -10.59375 L 7.28125 -9.21875 L 6.9375 -9.234375 C 5.832031 -9.234375 4.96875 -8.894531 4.34375 -8.21875 C 3.71875 -7.539062 3.40625 -6.585938 3.40625 -5.359375 L 3.40625 0 L 1.984375 0 L 1.984375 -10.515625 L 3.34375 -10.515625 Z M 3.34375 -8.453125 "/></g></g></g><g fill="#0057b7" fill-opacity="1"><g transform="translate(216.882156, 287.612912)"><g><path d="M 10.8125 -10.515625 L 6.140625 0 L 4.6875 0 L 0.015625 -10.515625 L 1.5 -10.515625 L 5.4375 -1.5625 L 9.421875 -10.515625 Z M 10.8125 -10.515625 "/></g></g></g><g fill="#0057b7" fill-opacity="1"><g transform="translate(229.817882, 287.612912)"><g><path d="M 1.984375 -10.515625 L 3.40625 -10.515625 L 3.40625 0 L 1.984375 0 Z M 2.703125 -12.8125 C 2.410156 -12.8125 2.160156 -12.910156 1.953125 -13.109375 C 1.753906 -13.316406 1.65625 -13.5625 1.65625 -13.84375 C 1.65625 -14.101562 1.753906 -14.332031 1.953125 -14.53125 C 2.160156 -14.738281 2.410156 -14.84375 2.703125 -14.84375 C 2.992188 -14.84375 3.238281 -14.742188 3.4375 -14.546875 C 3.644531 -14.359375 3.75 -14.128906 3.75 -13.859375 C 3.75 -13.566406 3.644531 -13.316406 3.4375 -13.109375 C 3.238281 -12.910156 2.992188 -12.8125 2.703125 -12.8125 Z M 2.703125 -12.8125 "/></g></g></g><g fill="#0057b7" fill-opacity="1"><g transform="translate(237.29576, 287.612912)"><g><path d="M 6.34375 0.09375 C 5.300781 0.09375 4.367188 -0.128906 3.546875 -0.578125 C 2.722656 -1.035156 2.078125 -1.671875 1.609375 -2.484375 C 1.148438 -3.304688 0.921875 -4.234375 0.921875 -5.265625 C 0.921875 -6.285156 1.148438 -7.203125 1.609375 -8.015625 C 2.078125 -8.828125 2.722656 -9.457031 3.546875 -9.90625 C 4.367188 -10.363281 5.300781 -10.59375 6.34375 -10.59375 C 7.25 -10.59375 8.054688 -10.414062 8.765625 -10.0625 C 9.484375 -9.71875 10.046875 -9.203125 10.453125 -8.515625 L 9.40625 -7.796875 C 9.050781 -8.316406 8.609375 -8.707031 8.078125 -8.96875 C 7.546875 -9.226562 6.96875 -9.359375 6.34375 -9.359375 C 5.582031 -9.359375 4.894531 -9.1875 4.28125 -8.84375 C 3.675781 -8.507812 3.203125 -8.023438 2.859375 -7.390625 C 2.523438 -6.765625 2.359375 -6.054688 2.359375 -5.265625 C 2.359375 -4.453125 2.523438 -3.734375 2.859375 -3.109375 C 3.203125 -2.492188 3.675781 -2.015625 4.28125 -1.671875 C 4.894531 -1.328125 5.582031 -1.15625 6.34375 -1.15625 C 6.96875 -1.15625 7.546875 -1.28125 8.078125 -1.53125 C 8.609375 -1.789062 9.050781 -2.179688 9.40625 -2.703125 L 10.453125 -1.984375 C 10.046875 -1.296875 9.484375 -0.773438 8.765625 -0.421875 C 8.046875 -0.078125 7.238281 0.09375 6.34375 0.09375 Z M 6.34375 0.09375 "/></g></g></g><g fill="#0057b7" fill-opacity="1"><g transform="translate(250.651323, 287.612912)"><g><path d="M 11.140625 -4.8125 L 2.34375 -4.8125 C 2.414062 -3.726562 2.832031 -2.847656 3.59375 -2.171875 C 4.351562 -1.492188 5.316406 -1.15625 6.484375 -1.15625 C 7.128906 -1.15625 7.722656 -1.269531 8.265625 -1.5 C 8.816406 -1.738281 9.296875 -2.085938 9.703125 -2.546875 L 10.5 -1.625 C 10.03125 -1.0625 9.445312 -0.632812 8.75 -0.34375 C 8.050781 -0.0507812 7.28125 0.09375 6.4375 0.09375 C 5.351562 0.09375 4.394531 -0.132812 3.5625 -0.59375 C 2.726562 -1.050781 2.078125 -1.6875 1.609375 -2.5 C 1.148438 -3.3125 0.921875 -4.234375 0.921875 -5.265625 C 0.921875 -6.285156 1.144531 -7.203125 1.59375 -8.015625 C 2.039062 -8.828125 2.648438 -9.457031 3.421875 -9.90625 C 4.203125 -10.363281 5.082031 -10.59375 6.0625 -10.59375 C 7.03125 -10.59375 7.898438 -10.363281 8.671875 -9.90625 C 9.453125 -9.457031 10.0625 -8.828125 10.5 -8.015625 C 10.9375 -7.210938 11.15625 -6.296875 11.15625 -5.265625 Z M 6.0625 -9.375 C 5.050781 -9.375 4.203125 -9.050781 3.515625 -8.40625 C 2.828125 -7.757812 2.4375 -6.914062 2.34375 -5.875 L 9.796875 -5.875 C 9.703125 -6.914062 9.3125 -7.757812 8.625 -8.40625 C 7.9375 -9.050781 7.082031 -9.375 6.0625 -9.375 Z M 6.0625 -9.375 "/></g></g></g><g fill="#0057b7" fill-opacity="1"><g transform="translate(264.826558, 287.612912)"><g><path d="M 4.796875 0.09375 C 3.941406 0.09375 3.125 -0.0234375 2.34375 -0.265625 C 1.570312 -0.515625 0.960938 -0.828125 0.515625 -1.203125 L 1.15625 -2.3125 C 1.59375 -1.96875 2.144531 -1.6875 2.8125 -1.46875 C 3.476562 -1.25 4.175781 -1.140625 4.90625 -1.140625 C 5.863281 -1.140625 6.570312 -1.289062 7.03125 -1.59375 C 7.488281 -1.894531 7.71875 -2.316406 7.71875 -2.859375 C 7.71875 -3.242188 7.585938 -3.546875 7.328125 -3.765625 C 7.078125 -3.984375 6.757812 -4.148438 6.375 -4.265625 C 5.988281 -4.378906 5.476562 -4.488281 4.84375 -4.59375 C 3.988281 -4.757812 3.300781 -4.925781 2.78125 -5.09375 C 2.257812 -5.257812 1.816406 -5.539062 1.453125 -5.9375 C 1.085938 -6.34375 0.90625 -6.894531 0.90625 -7.59375 C 0.90625 -8.476562 1.269531 -9.195312 2 -9.75 C 2.726562 -10.3125 3.75 -10.59375 5.0625 -10.59375 C 5.738281 -10.59375 6.414062 -10.503906 7.09375 -10.328125 C 7.78125 -10.148438 8.34375 -9.914062 8.78125 -9.625 L 8.15625 -8.484375 C 7.289062 -9.078125 6.257812 -9.375 5.0625 -9.375 C 4.15625 -9.375 3.46875 -9.210938 3 -8.890625 C 2.539062 -8.578125 2.3125 -8.160156 2.3125 -7.640625 C 2.3125 -7.242188 2.441406 -6.921875 2.703125 -6.671875 C 2.960938 -6.429688 3.285156 -6.253906 3.671875 -6.140625 C 4.066406 -6.035156 4.601562 -5.921875 5.28125 -5.796875 C 6.125 -5.640625 6.796875 -5.476562 7.296875 -5.3125 C 7.804688 -5.15625 8.238281 -4.882812 8.59375 -4.5 C 8.957031 -4.113281 9.140625 -3.582031 9.140625 -2.90625 C 9.140625 -1.976562 8.753906 -1.242188 7.984375 -0.703125 C 7.222656 -0.171875 6.160156 0.09375 4.796875 0.09375 Z M 4.796875 0.09375 "/></g></g></g></svg>